
<!-- Generator: visioncortex VTracer 0.6.4 -->
<svg version="1.1" xmlns="http://www.w3.org/2000/svg" viewBox="0 0 600 195" preserveAspectRatio="xMidYMid meet">
<path d="M0 0 C0.66 0 1.32 0 2 0 C2.303 0.58 2.606 1.16 2.918 1.758 C3.337 2.539 3.756 3.32 4.188 4.125 C4.594 4.891 5 5.656 5.418 6.445 C9.155 12.479 13.209 16.191 19.125 19.938 C19.784 20.366 20.442 20.794 21.121 21.235 C23.074 22.501 25.035 23.753 27 25 C28.049 25.668 29.099 26.335 30.18 27.023 C31.991 28.172 33.802 29.321 35.613 30.469 C38.845 32.542 41.967 34.641 45 37 C45 37.66 45 38.32 45 39 C45.66 39 46.32 39 47 39 C48.437 40.461 48.437 40.461 50 42.375 C51.619 44.342 53.197 46.197 55 48 C56.043 49.894 57.037 51.814 58 53.75 C58.773 55.289 58.773 55.289 59.562 56.859 C60.943 59.874 62.007 62.839 63 66 C63.547 67.373 63.547 67.373 64.105 68.773 C65.305 73.1 65.341 77.155 65.312 81.625 C65.307 82.957 65.307 82.957 65.302 84.316 C65.188 91.236 64.19 97.419 62 104 C61.772 104.84 61.544 105.681 61.309 106.547 C59.838 111.691 58.078 114.386 54 118 C52.82 119.342 51.654 120.698 50.5 122.062 C47.887 125.091 45.185 127.564 42 130 C41.67 130.66 41.34 131.32 41 132 C39.223 133.07 39.223 133.07 37.062 134.125 C36.352 134.478 35.642 134.831 34.91 135.195 C33 136 33 136 31 136 C30.67 136.66 30.34 137.32 30 138 C28.215 138.781 28.215 138.781 25.938 139.5 C25.204 139.737 24.471 139.974 23.715 140.219 C8.745 144.527 -4.185 145.208 -19 140 C-20.226 139.582 -20.226 139.582 -21.477 139.156 C-35.854 133.51 -48.283 122.333 -54.711 108.328 C-60.623 93.066 -60.368 80.023 -57 64 C-56.34 64 -55.68 64 -55 64 C-54.613 62.689 -54.613 62.689 -54.219 61.352 C-52.989 57.97 -51.487 55.364 -49.5 52.375 C-47.072 48.779 -47.072 48.779 -45.129 44.922 C-43.464 42.087 -41.129 40.721 -38.438 38.875 C-34.613 36.476 -34.613 36.476 -32 33 C-30.423 32.097 -28.812 31.253 -27.188 30.438 C-13.246 22.941 -5.015 15.044 0 0 Z M-26.301 86.195 C-31.182 91.379 -31.544 96.33 -31.348 103.215 C-30.881 106.95 -29.958 108.665 -27 111 C-23.958 112.292 -23.958 112.292 -21 113 C-20.34 113.33 -19.68 113.66 -19 114 C-8.221 114.398 -1.124 110.476 7.555 104.602 C8.168 104.192 8.781 103.783 9.413 103.361 C10.609 102.557 11.794 101.736 12.966 100.896 C17.129 98.065 20.024 97.521 25 98 C25.71 98.053 26.421 98.106 27.152 98.16 C30.127 99.512 31.595 101.878 33.562 104.438 C37.83 110.191 37.83 110.191 44.375 112.5 C48.138 112.316 48.138 112.316 50.75 109.625 C54.942 103.773 56.819 96.102 56 89 C54.423 85.019 53.59 83.393 50 81 C43.626 79.756 39.055 83.602 34 87 C33.209 87.584 32.417 88.168 31.602 88.77 C25.779 93.013 25.779 93.013 21.125 92.938 C15.131 91.139 15.131 91.139 12.938 88.812 C7.254 82.923 -0.014 79.377 -8 78 C-15.692 78 -20.853 81.037 -26.301 86.195 Z M11 112 C10.048 114.121 10.048 114.121 10 116 C11.011 115.34 12.021 114.68 13.062 114 C16.81 111.849 19.657 111.582 24 112 C24.99 112.33 25.98 112.66 27 113 C27.33 113.99 27.66 114.98 28 116 C28.33 115.34 28.66 114.68 29 114 C28.196 113.196 27.391 112.391 26.562 111.562 C25.375 110.375 24.188 109.188 23 108 C17.761 107.391 15.015 108.639 11 112 Z M-4 123 C-4 123.99 -4 124.98 -4 126 C1.559 130.2 5.689 131.181 12.5 131.188 C13.177 131.2 13.854 131.212 14.551 131.225 C18.264 131.236 19.83 131.113 23 129 C22.67 128.67 22.34 128.34 22 128 C20.374 128.006 18.749 128.056 17.125 128.125 C9.618 128.203 2.634 126.54 -4 123 Z M31 123 C27.04 124.98 27.04 124.98 23 127 C23 127.66 23 128.32 23 129 C26.821 128.469 29.062 127.503 32 125 C31.67 124.34 31.34 123.68 31 123 Z " fill="#2F6DA9" transform="translate(68,24)"/>
<path d="M0 0 C3.883 3.265 7.112 6.398 8.75 11.312 C8.836 12.77 8.868 14.232 8.864 15.692 C8.863 17.013 8.863 17.013 8.863 18.361 C8.858 19.308 8.853 20.255 8.848 21.23 C8.846 22.203 8.845 23.175 8.843 24.177 C8.838 27.285 8.825 30.392 8.812 33.5 C8.807 35.606 8.803 37.712 8.799 39.818 C8.788 44.983 8.771 50.148 8.75 55.312 C3.8 55.312 -1.15 55.312 -6.25 55.312 C-6.259 54.182 -6.269 53.052 -6.278 51.888 C-6.318 47.69 -6.384 43.494 -6.458 39.297 C-6.486 37.481 -6.507 35.665 -6.521 33.85 C-6.542 31.238 -6.589 28.627 -6.641 26.016 C-6.642 25.205 -6.643 24.395 -6.644 23.559 C-6.737 19.967 -6.933 17.749 -9.073 14.804 C-12.32 12.579 -14.408 12.706 -18.25 13.312 C-21.205 14.979 -21.205 14.979 -23.25 18.312 C-23.855 22.534 -23.672 26.685 -23.5 30.938 C-23.438 33.2 -23.38 35.463 -23.328 37.727 C-23.302 38.823 -23.275 39.919 -23.248 41.048 C-23.251 45.839 -23.691 50.557 -24.25 55.312 C-27.885 56.197 -30.854 56.32 -34.562 55.875 C-35.887 55.722 -35.887 55.722 -37.238 55.566 C-37.902 55.483 -38.566 55.399 -39.25 55.312 C-39.28 53.663 -39.28 53.663 -39.31 51.979 C-39.386 47.894 -39.475 43.809 -39.567 39.724 C-39.606 37.957 -39.64 36.19 -39.672 34.422 C-39.718 31.88 -39.776 29.339 -39.836 26.797 C-39.847 26.008 -39.859 25.22 -39.871 24.407 C-39.983 19.041 -39.983 19.041 -42.25 14.312 C-45.274 12.8 -47.912 13.14 -51.25 13.312 C-53.604 14.193 -53.604 14.193 -55.25 15.312 C-55.25 15.972 -55.25 16.632 -55.25 17.312 C-55.91 17.312 -56.57 17.312 -57.25 17.312 C-57.25 29.852 -57.25 42.392 -57.25 55.312 C-61.165 56.095 -64.149 56.422 -68.062 56.375 C-69.038 56.366 -70.014 56.357 -71.02 56.348 C-72.124 56.33 -72.124 56.33 -73.25 56.312 C-74.392 54.028 -74.377 52.759 -74.379 50.221 C-74.383 49.376 -74.386 48.53 -74.389 47.66 C-74.387 46.742 -74.385 45.824 -74.383 44.879 C-74.384 43.931 -74.385 42.983 -74.386 42.007 C-74.386 39.994 -74.385 37.98 -74.38 35.967 C-74.375 32.919 -74.38 29.871 -74.387 26.822 C-74.386 24.862 -74.385 22.902 -74.383 20.941 C-74.385 20.042 -74.387 19.143 -74.389 18.216 C-74.366 11.862 -73.893 5.635 -73.25 -0.688 C-68.3 -0.688 -63.35 -0.688 -58.25 -0.688 C-57.92 0.633 -57.59 1.953 -57.25 3.312 C-55.858 2.353 -55.858 2.353 -54.438 1.375 C-48.639 -2.377 -42.995 -2.357 -36.25 -1.688 C-32.75 0.188 -32.75 0.188 -30.25 2.312 C-28.931 3.007 -27.604 3.688 -26.25 4.312 C-25.611 3.714 -24.971 3.116 -24.312 2.5 C-16.693 -2.942 -8.461 -4.393 0 0 Z " fill="#306CA2" transform="translate(270.25,52.6875)"/>
<path d="M0 0 C0 8.58 0 17.16 0 26 C2.31 24.35 4.62 22.7 7 21 C13.258 18.914 20.577 19.072 26.75 21.438 C33.22 24.778 38.33 30.474 41 37.25 C43.694 47.376 42.459 57.589 38 67 C33.323 72.907 27.369 76.501 20 78 C12.377 78.784 6.44 77.293 0 73 C-0.33 74.32 -0.66 75.64 -1 77 C-2.561 77.197 -4.124 77.382 -5.688 77.562 C-6.993 77.719 -6.993 77.719 -8.324 77.879 C-11.078 78.004 -13.319 77.583 -16 77 C-16.169 72.998 -16.329 68.997 -16.482 64.994 C-16.535 63.636 -16.591 62.277 -16.648 60.918 C-16.731 58.955 -16.805 56.991 -16.879 55.027 C-16.926 53.849 -16.973 52.671 -17.022 51.457 C-16.999 47.883 -16.584 44.522 -16 41 C-16.66 40.67 -17.32 40.34 -18 40 C-17.34 40 -16.68 40 -16 40 C-16 26.47 -16 12.94 -16 -1 C-4 -2 -4 -2 0 0 Z M3 37 C3 37.66 3 38.32 3 39 C2.34 39 1.68 39 1 39 C-1.892 45.373 -2.059 51.88 0.188 58.5 C2.377 61.52 3.481 62.68 7 64 C12.266 64.651 16.589 64.605 21.5 62.5 C25.398 58.602 26.803 54.99 27.164 49.504 C26.938 43.783 25.469 40.441 21.57 36.277 C16.433 32.099 7.853 32.93 3 37 Z " fill="#316DA3" transform="translate(302,31)"/>
<path d="M0 0 C4.501 3.124 6.835 6.559 8.578 11.789 C9.019 18.703 8.919 25.235 6.578 31.789 C5.273 33.15 3.938 34.482 2.578 35.789 C1.535 37.105 0.515 38.44 -0.484 39.789 C-5.089 45.811 -10.259 51.244 -15.422 56.789 C-2.057 57.284 -2.057 57.284 11.578 57.789 C11.248 62.409 10.918 67.029 10.578 71.789 C3.783 72.579 -2.754 72.881 -9.586 72.668 C-10.504 72.644 -11.422 72.621 -12.368 72.596 C-15.261 72.521 -18.154 72.436 -21.047 72.352 C-23.025 72.298 -25.003 72.246 -26.98 72.193 C-31.794 72.065 -36.608 71.929 -41.422 71.789 C-41.53 69.874 -41.608 67.956 -41.672 66.039 C-41.741 64.438 -41.741 64.438 -41.812 62.805 C-41.186 57.97 -38.187 56.405 -34.547 53.477 C-32.276 51.62 -30.41 49.677 -28.547 47.414 C-26.379 44.781 -24.122 42.637 -21.484 40.477 C-15.607 35.469 -10.693 29.522 -9.422 21.789 C-8.927 21.294 -8.927 21.294 -8.422 20.789 C-8.128 17.067 -8.274 16.011 -10.422 12.789 C-15.319 11.746 -18.988 11.079 -23.422 13.789 C-25.883 16.455 -27.272 18.339 -28.422 21.789 C-40.693 17.898 -40.693 17.898 -42.859 14.602 C-43.045 14.003 -43.231 13.405 -43.422 12.789 C-42.762 12.789 -42.102 12.789 -41.422 12.789 C-41.133 12.047 -40.844 11.304 -40.547 10.539 C-40.176 9.632 -39.804 8.724 -39.422 7.789 C-39.167 7.137 -38.911 6.485 -38.648 5.812 C-35.774 1.071 -29.41 -1.26 -24.547 -3.586 C-15.335 -5.428 -8.27 -4.568 0 0 Z " fill="#306BA1" transform="translate(568.421875,36.2109375)"/>
<path d="M0 0 C0 0.66 0 1.32 0 2 C0.886 2.102 1.771 2.204 2.684 2.309 C9.413 3.712 15.243 8.281 19 14 C23.182 21.728 24.508 30.112 22.312 38.684 C19.64 46 15.462 51.619 9 56 C0.767 59.746 -9.128 60.674 -17.836 58.191 C-25.464 54.8 -31.799 48.723 -35 40.938 C-36.978 33.423 -37.788 24.221 -34.711 16.957 C-29.557 9.178 -22.177 3.161 -13 1 C-8.682 0.402 -4.362 0 0 0 Z M-17.75 19.562 C-20.703 23.413 -21.259 27.224 -21 32 C-20.191 36.81 -18.928 40.049 -15.5 43.562 C-10.582 45.582 -6.24 45.911 -1 45 C2.928 43.032 5.389 40.059 7 36 C7.667 30.431 7.732 25.545 5.312 20.438 C1.77 16.703 -0.815 14.853 -6 14.688 C-11.135 14.928 -13.925 15.999 -17.75 19.562 Z " fill="#306BA1" transform="translate(385,50)"/>
<path d="M0 0 C3.198 2.496 4.194 4.102 5 8 C5.66 8.33 6.32 8.66 7 9 C8.08 14.26 8.133 19.424 8.098 24.777 C8.096 25.589 8.095 26.4 8.093 27.236 C8.088 29.803 8.075 32.37 8.062 34.938 C8.057 36.688 8.053 38.439 8.049 40.189 C8.038 44.46 8.021 48.73 8 53 C3.38 53 -1.24 53 -6 53 C-6.66 51.68 -7.32 50.36 -8 49 C-8.66 49.66 -9.32 50.32 -10 51 C-16.748 54.31 -23.552 55.417 -31 54 C-36.036 51.183 -39.169 47.758 -41.625 42.562 C-42.358 35.597 -41.609 30.119 -38 24 C-37.34 24 -36.68 24 -36 24 C-35.67 23.34 -35.34 22.68 -35 22 C-30.076 19.439 -26.648 18.654 -21 19 C-20.67 18.34 -20.34 17.68 -20 17 C-20 17.66 -20 18.32 -20 19 C-18.969 18.794 -17.938 18.588 -16.875 18.375 C-12.877 17.988 -10.663 18.481 -7 20 C-7.423 18.683 -7.864 17.371 -8.312 16.062 C-8.556 15.332 -8.8 14.601 -9.051 13.848 C-9.912 11.641 -9.912 11.641 -13 11 C-20.316 10.528 -26.931 11.115 -34 13 C-34.7 11.736 -35.384 10.463 -36.062 9.188 C-36.637 8.126 -36.637 8.126 -37.223 7.043 C-38 5 -38 5 -37 2 C-34.637 0.648 -34.637 0.648 -31.688 -0.625 C-30.722 -1.05 -29.756 -1.476 -28.762 -1.914 C-19.106 -5.711 -9.083 -5.014 0 0 Z M-24 30 C-24 30.66 -24 31.32 -24 32 C-24.66 32 -25.32 32 -26 32 C-26.478 36.79 -26.478 36.79 -24.562 41 C-20.569 42.558 -17.082 42.186 -13 41 C-9.451 38.412 -8.235 36.957 -7.188 32.688 C-7.126 31.801 -7.064 30.914 -7 30 C-9.852 28.574 -12.325 28.868 -15.5 28.875 C-16.665 28.872 -17.831 28.87 -19.031 28.867 C-21.929 28.795 -21.929 28.795 -24 30 Z " fill="#316CA3" transform="translate(182,55)"/>
<path d="M0 0 C0.914 5.687 0.914 10.313 0 16 C0.825 15.814 1.65 15.629 2.5 15.438 C6.619 14.923 9.908 15.365 14 16 C13.67 20.29 13.34 24.58 13 29 C3.375 30.125 3.375 30.125 0 29 C0.11 33.084 0.241 37.167 0.375 41.25 C0.406 42.409 0.437 43.568 0.469 44.762 C0.507 45.877 0.546 46.992 0.586 48.141 C0.633 49.68 0.633 49.68 0.681 51.251 C0.88 54.328 0.88 54.328 3 58 C6.3 58 9.6 58 13 58 C13 62.29 13 66.58 13 71 C4.587 73.804 -1.126 73.806 -9 70 C-9.99 69.34 -10.98 68.68 -12 68 C-12 67.34 -12 66.68 -12 66 C-12.66 65.67 -13.32 65.34 -14 65 C-15.416 61.338 -15.113 57.481 -15.098 53.609 C-15.096 52.905 -15.095 52.2 -15.093 51.474 C-15.088 49.233 -15.075 46.991 -15.062 44.75 C-15.057 43.227 -15.053 41.703 -15.049 40.18 C-15.038 36.453 -15.021 32.727 -15 29 C-15.99 29.33 -16.98 29.66 -18 30 C-19.98 29.67 -21.96 29.34 -24 29 C-24 24.71 -24 20.42 -24 16 C-21.03 16 -18.06 16 -15 16 C-15 11.05 -15 6.1 -15 1 C-9.929 0.288 -5.118 -0.107 0 0 Z " fill="#306CA2" transform="translate(434,36)"/>
<path d="M0 0 C0.824 9.041 1.148 17.994 1.133 27.07 C1.134 28.996 1.134 28.996 1.136 30.961 C1.137 33.649 1.135 36.336 1.13 39.023 C1.125 42.465 1.128 45.907 1.134 49.349 C1.138 52.652 1.135 55.955 1.133 59.258 C1.135 60.492 1.137 61.726 1.139 62.998 C1.136 64.137 1.133 65.276 1.129 66.45 C1.129 67.452 1.128 68.454 1.127 69.487 C1 72 1 72 0 75 C-4.95 75.33 -9.9 75.66 -15 76 C-15 57.19 -15 38.38 -15 19 C-20.94 21.475 -20.94 21.475 -27 24 C-27.99 24 -28.98 24 -30 24 C-30.135 21.898 -30.232 19.793 -30.312 17.688 C-30.371 16.516 -30.429 15.344 -30.488 14.137 C-30 11 -30 11 -27.605 9.082 C-25 8 -25 8 -23 8 C-22.67 7.34 -22.34 6.68 -22 6 C-14.798 1.768 -8.378 -1.597 0 0 Z " fill="#316CA3" transform="translate(519,33)"/>
<path d="M0 0 C1.769 0.014 1.769 0.014 3.574 0.027 C4.478 0.039 5.381 0.051 6.312 0.062 C7.606 24.768 7.059 49.348 6.312 74.062 C1.363 74.392 -3.587 74.722 -8.688 75.062 C-8.688 56.252 -8.688 37.442 -8.688 18.062 C-14.627 20.538 -14.627 20.538 -20.688 23.062 C-21.678 22.733 -22.668 22.403 -23.688 22.062 C-24.434 17.855 -24.736 14.232 -23.688 10.062 C-19.997 6.721 -14.856 3.062 -9.688 3.062 C-9.688 2.403 -9.688 1.742 -9.688 1.062 C-6.265 -0.078 -3.601 -0.036 0 0 Z " fill="#306BA0" transform="translate(474.6875,33.9375)"/>
<path d="M0 0 C3.94 1.349 6.491 3.316 9 6.688 C10.733 12.427 9.848 16.971 7.562 22.438 C3.846 26.154 0.186 26.888 -5 27 C-8.886 26.28 -11.468 24.49 -14.375 21.812 C-16.43 18.256 -17.193 15.065 -17 11 C-14.272 1.907 -9.228 -1.549 0 0 Z M-10 10 C-10.579 14.666 -10.579 14.666 -8.812 18.875 C-6.398 20.374 -4.863 20.932 -2 21 C0.951 19.639 0.951 19.639 3 17 C3.648 12.967 3.658 10.95 1.312 7.562 C-0.896 5.853 -0.896 5.853 -3.5 5.5 C-6.905 6.181 -8.025 7.148 -10 10 Z M0 10 C2 11 2 11 2 11 Z " fill="#326799" transform="translate(482,138)"/>
<path d="M0 0 C5.801 0.025 10.382 1.844 15.562 4.312 C14.572 4.808 14.572 4.808 13.562 5.312 C13.893 6.303 14.222 7.292 14.562 8.312 C13.598 10.661 12.597 12.994 11.562 15.312 C11.256 18.326 11.256 18.326 13.062 20.25 C14.562 22.312 14.562 22.312 14.562 26.312 C12.582 26.312 10.602 26.312 8.562 26.312 C7.903 24.662 7.242 23.012 6.562 21.312 C5.903 21.312 5.242 21.312 4.562 21.312 C4.232 20.322 3.903 19.333 3.562 18.312 C2.903 17.983 2.242 17.653 1.562 17.312 C1.748 18.241 1.934 19.169 2.125 20.125 C2.562 23.312 2.562 23.312 1.562 26.312 C-0.747 26.312 -3.058 26.312 -5.438 26.312 C-5.466 22.167 -5.484 18.021 -5.5 13.875 C-5.508 12.691 -5.517 11.507 -5.525 10.287 C-5.529 9.162 -5.532 8.038 -5.535 6.879 C-5.54 5.837 -5.546 4.795 -5.551 3.721 C-5.359 -0.362 -3.68 0.109 0 0 Z M1.562 6.312 C1.562 7.963 1.562 9.613 1.562 11.312 C3.543 10.982 5.523 10.653 7.562 10.312 C7.562 9.322 7.562 8.333 7.562 7.312 C4.592 6.817 4.592 6.817 1.562 6.312 Z " fill="#356A9C" transform="translate(543.4375,137.6875)"/>
<path d="M0 0 C2.727 2.813 3.434 5.574 3.609 9.34 C3.376 13.202 2.617 15.732 0.109 18.777 C-4.118 22.477 -7.568 22.899 -13.078 22.84 C-14.708 22.826 -14.708 22.826 -16.371 22.812 C-17.203 22.801 -18.034 22.789 -18.891 22.777 C-19.088 19.382 -19.272 15.986 -19.453 12.59 C-19.509 11.63 -19.565 10.67 -19.623 9.682 C-19.671 8.75 -19.72 7.819 -19.77 6.859 C-19.817 6.006 -19.864 5.152 -19.912 4.273 C-19.89 1.654 -19.483 -0.677 -18.891 -3.223 C-12.546 -4.914 -5.537 -3.581 0 0 Z M-12.891 2.777 C-12.891 7.397 -12.891 12.017 -12.891 16.777 C-7.875 16.448 -7.875 16.448 -3.891 13.777 C-3.611 10.845 -3.419 8.623 -3.891 5.777 C-5.449 3.63 -5.449 3.63 -7.891 2.777 C-9.541 2.777 -11.191 2.777 -12.891 2.777 Z " fill="#32699B" transform="translate(224.890625,141.22265625)"/>
<path d="M0 0 C2.393 0.248 4.785 0.495 7.25 0.75 C7.997 0.818 8.743 0.886 9.513 0.956 C12.771 1.343 14.807 1.854 17.438 3.844 C19.571 6.788 19.725 9.428 20 13 C18.68 13.99 17.36 14.98 16 16 C16.344 18.473 16.344 18.473 17 21 C17.66 21.33 18.32 21.66 19 22 C19.625 24.562 19.625 24.562 20 27 C17.69 27 15.38 27 13 27 C12.734 26.434 12.469 25.868 12.195 25.285 C11.666 24.185 11.666 24.185 11.125 23.062 C10.777 22.332 10.429 21.601 10.07 20.848 C9.132 18.837 9.132 18.837 7 18 C7.33 18.99 7.66 19.98 8 21 C7.724 23.009 7.398 25.012 7 27 C4.69 27 2.38 27 0 27 C0 18.09 0 9.18 0 0 Z M7 7 C7 8.65 7 10.3 7 12 C8.65 12 10.3 12 12 12 C12 10.68 12 9.36 12 8 C10.35 7.67 8.7 7.34 7 7 Z " fill="#356A9C" transform="translate(231,137)"/>
<path d="M0 0 C1.586 -0.02 3.172 -0.035 4.758 -0.047 C6.083 -0.06 6.083 -0.06 7.434 -0.073 C12.134 0.061 15.72 0.956 19.375 3.938 C22.019 7.293 22.116 10.062 22.062 14.188 C22.053 15.089 22.044 15.99 22.035 16.918 C22.024 17.605 22.012 18.292 22 19 C21.34 19 20.68 19 20 19 C19.691 19.897 19.691 19.897 19.375 20.812 C17.324 24.075 15.665 24.736 12 26 C7.986 26.241 4.015 26.175 0 26 C-0.965 22.814 -1.052 20.112 -0.879 16.797 C-0.831 15.817 -0.782 14.838 -0.732 13.828 C-0.676 12.812 -0.62 11.797 -0.562 10.75 C-0.51 9.719 -0.458 8.688 -0.404 7.625 C-0.275 5.083 -0.14 2.541 0 0 Z M6 6 C6 10.62 6 15.24 6 20 C11.015 19.67 11.015 19.67 15 17 C15.279 14.068 15.471 11.846 15 9 C13.442 6.852 13.442 6.852 11 6 C9.35 6 7.7 6 6 6 Z " fill="#34699B" transform="translate(354,138)"/>
<path d="M0 0 C12.684 -0.619 12.684 -0.619 18 3 C19.448 5.644 20.103 7.98 20 11 C18.125 13.5 18.125 13.5 16 15 C17.109 18.487 18.263 21.775 20 25 C18 27 18 27 15.625 27.062 C11.588 25.429 10.841 22.887 9 19 C9 18.34 9 17.68 9 17 C8.34 17 7.68 17 7 17 C7 19.97 7 22.94 7 26 C4.69 26 2.38 26 0 26 C-0.939 17.178 -0.939 8.822 0 0 Z M6 6 C6 7.65 6 9.3 6 11 C7.98 11 9.96 11 12 11 C12.33 9.68 12.66 8.36 13 7 C10.69 6.67 8.38 6.34 6 6 Z " fill="#346A9D" transform="translate(167,138)"/>
<path d="M0 0 C1 3 1 3 1 7 C-2.63 7 -6.26 7 -10 7 C-10 8.32 -10 9.64 -10 11 C-7.03 11 -4.06 11 -1 11 C-1 12.98 -1 14.96 -1 17 C-3.97 17 -6.94 17 -10 17 C-10 18.32 -10 19.64 -10 21 C-6.37 21 -2.74 21 1 21 C1 22.98 1 24.96 1 27 C-1.604 27.249 -4.206 27.475 -6.812 27.688 C-7.55 27.76 -8.288 27.833 -9.049 27.908 C-14.536 28.33 -14.536 28.33 -16.717 26.778 C-18.346 24.52 -18.361 23.24 -18.328 20.473 C-18.323 19.598 -18.318 18.723 -18.312 17.822 C-18.292 16.912 -18.271 16.001 -18.25 15.062 C-18.245 14.156 -18.24 13.249 -18.234 12.314 C-18.187 8.273 -17.989 4.957 -17 1 C-8.585 0.505 -8.585 0.505 0 0 Z " fill="#366B9C" transform="translate(443,137)"/>
<path d="M0 0 C1.98 0 3.96 0 6 0 C7.18 3.539 7.062 6.337 7 10.062 C6.732 14.696 6.732 14.696 8 19 C9.98 19.33 11.96 19.66 14 20 C14.33 13.4 14.66 6.8 15 0 C16.98 0 18.96 0 21 0 C22.919 1.919 22.354 5.374 22.5 7.938 C22.606 12.633 22.606 12.633 24 17 C23.34 17 22.68 17 22 17 C21.752 17.928 21.505 18.856 21.25 19.812 C19.886 23.29 19.274 24.319 16 26 C11.941 27.052 9.712 27.26 5.75 25.812 C3.003 24.002 1.706 22.767 0 20 C-0.341 17.71 -0.341 17.71 -0.293 15.234 C-0.283 14.345 -0.274 13.455 -0.264 12.539 C-0.239 11.619 -0.213 10.698 -0.188 9.75 C-0.167 8.346 -0.167 8.346 -0.146 6.914 C-0.111 4.609 -0.062 2.305 0 0 Z " fill="#356A9C" transform="translate(254,138)"/>
<path d="M0 0 C0.706 0.052 1.413 0.104 2.141 0.158 C3.886 0.288 5.63 0.425 7.375 0.562 C7.375 2.542 7.375 4.523 7.375 6.562 C4.075 6.893 0.775 7.222 -2.625 7.562 C-2.955 8.553 -3.285 9.542 -3.625 10.562 C-2.346 10.377 -1.067 10.191 0.25 10 C4.125 9.438 4.125 9.438 6.375 10.562 C6.375 12.542 6.375 14.523 6.375 16.562 C3.075 16.562 -0.225 16.562 -3.625 16.562 C-3.625 17.882 -3.625 19.202 -3.625 20.562 C-3.109 20.377 -2.594 20.191 -2.062 20 C1.256 19.404 4.082 19.941 7.375 20.562 C8.375 21.562 8.375 21.562 8.375 26.562 C2.435 26.562 -3.505 26.562 -9.625 26.562 C-9.625 17.983 -9.625 9.403 -9.625 0.562 C-6.527 -0.986 -3.363 -0.27 0 0 Z " fill="#33699B" transform="translate(526.625,137.4375)"/>
<path d="M0 0 C1.053 0.078 1.053 0.078 2.127 0.158 C3.856 0.288 5.584 0.424 7.312 0.562 C6.983 2.542 6.652 4.523 6.312 6.562 C2.683 6.562 -0.947 6.562 -4.688 6.562 C-4.688 7.882 -4.688 9.202 -4.688 10.562 C-1.387 10.562 1.913 10.562 5.312 10.562 C5.312 12.542 5.312 14.523 5.312 16.562 C2.012 16.562 -1.288 16.562 -4.688 16.562 C-4.688 17.882 -4.688 19.202 -4.688 20.562 C-0.728 20.562 3.233 20.562 7.312 20.562 C8.312 23.562 8.312 23.562 7.312 26.562 C1.373 26.562 -4.567 26.562 -10.688 26.562 C-10.688 17.983 -10.688 9.403 -10.688 0.562 C-6.994 -0.669 -3.807 -0.309 0 0 Z " fill="#346A9D" transform="translate(389.6875,137.4375)"/>
<path d="M0 0 C1.207 0.031 1.207 0.031 2.438 0.062 C12.438 18.914 12.438 18.914 12.438 26.062 C10.457 26.062 8.478 26.062 6.438 26.062 C5.777 24.412 5.118 22.762 4.438 21.062 C3.881 21.248 3.324 21.434 2.75 21.625 C0.038 22.138 -1.906 21.727 -4.562 21.062 C-4.892 22.713 -5.223 24.363 -5.562 26.062 C-7.543 26.062 -9.522 26.062 -11.562 26.062 C-11.643 22.541 -11.603 19.443 -10.562 16.062 C-9.902 16.062 -9.243 16.062 -8.562 16.062 C-8.272 15.067 -8.272 15.067 -7.977 14.051 C-3.861 0.094 -3.861 0.094 0 0 Z M-0.562 10.062 C-0.892 11.713 -1.223 13.363 -1.562 15.062 C-0.243 14.732 1.077 14.403 2.438 14.062 C1.447 12.743 0.457 11.423 -0.562 10.062 Z " fill="#336A9D" transform="translate(309.5625,137.9375)"/>
<path d="M0 0 C11.931 0 11.931 0 17 3 C19.125 5.25 19.125 5.25 20 8 C18.894 12.009 17.866 14.294 14.625 16.938 C11.856 18.058 9.956 18.253 7 18 C7.186 18.763 7.371 19.526 7.562 20.312 C8 23 8 23 7 26 C4.69 26 2.38 26 0 26 C0 17.42 0 8.84 0 0 Z M7 6 C7 7.98 7 9.96 7 12 C8.65 11.67 10.3 11.34 12 11 C12 9.68 12 8.36 12 7 C10.35 6.67 8.7 6.34 7 6 Z " fill="#356A9D" transform="translate(495,138)"/>
<path d="M0 0 C6.435 -0.35 11.352 -0.295 17 3 C19.229 5.6 18.999 7.033 18.938 10.5 C18 14 18 14 15.812 16.438 C12.588 18.229 10.632 18.338 7 18 C7.186 18.763 7.371 19.526 7.562 20.312 C8 23 8 23 7 26 C4.69 26 2.38 26 0 26 C-0.196 22.042 -0.381 18.084 -0.562 14.125 C-0.619 12.997 -0.675 11.869 -0.732 10.707 C-0.805 9.092 -0.805 9.092 -0.879 7.445 C-0.926 6.45 -0.973 5.455 -1.022 4.43 C-1 2 -1 2 0 0 Z M7 6 C7 7.98 7 9.96 7 12 C8.65 11.67 10.3 11.34 12 11 C12 9.68 12 8.36 12 7 C10.35 6.67 8.7 6.34 7 6 Z " fill="#346B9E" transform="translate(279,138)"/>
<path d="M0 0 C2.938 1.5 2.938 1.5 5 3 C4.67 4.32 4.34 5.64 4 7 C0.185 8.467 -2.29 7.433 -6 6 C-6 6.99 -6 7.98 -6 9 C-4.67 9.155 -4.67 9.155 -3.312 9.312 C0.218 10.045 2.26 10.651 5 13 C5.943 16.457 6.341 18.854 5.312 22.312 C2.711 25.657 -0.214 26.104 -4.25 26.625 C-5.488 26.749 -6.725 26.873 -8 27 C-8 26.34 -8 25.68 -8 25 C-8.928 24.783 -8.928 24.783 -9.875 24.562 C-12 24 -12 24 -14 23 C-14 22.01 -14 21.02 -14 20 C-13.34 20 -12.68 20 -12 20 C-12 19.34 -12 18.68 -12 18 C-11.227 18.217 -11.227 18.217 -10.438 18.438 C-7.315 19.158 -4.174 19.573 -1 20 C-1.33 19.01 -1.66 18.02 -2 17 C-2.722 16.917 -3.444 16.835 -4.188 16.75 C-7.696 15.815 -9.47 14.601 -12 12 C-13.062 9.062 -13.062 9.062 -13 6 C-9.312 0.277 -6.69 -0.454 0 0 Z " fill="#33699C" transform="translate(158,138)"/>
<path d="M0 0 C0.897 0.526 0.897 0.526 1.812 1.062 C1.457 1.985 1.457 1.985 1.094 2.927 C0.019 5.721 -1.053 8.517 -2.125 11.312 C-2.498 12.281 -2.871 13.249 -3.256 14.246 C-3.614 15.181 -3.971 16.115 -4.34 17.078 C-4.67 17.937 -5 18.796 -5.34 19.681 C-6.093 21.797 -6.689 23.874 -7.188 26.062 C-9.498 26.062 -11.808 26.062 -14.188 26.062 C-15.699 22.484 -17.195 18.899 -18.688 15.312 C-19.117 14.297 -19.546 13.281 -19.988 12.234 C-20.394 11.255 -20.8 10.275 -21.219 9.266 C-21.784 7.915 -21.784 7.915 -22.361 6.536 C-23.188 4.062 -23.188 4.062 -23.188 0.062 C-21.207 0.062 -19.228 0.062 -17.188 0.062 C-16.374 1.999 -15.561 3.937 -14.75 5.875 C-14.071 7.493 -14.071 7.493 -13.379 9.145 C-12.584 11.092 -11.853 13.067 -11.188 15.062 C-10.789 13.991 -10.391 12.92 -9.98 11.816 C-9.446 10.419 -8.911 9.022 -8.375 7.625 C-8.114 6.918 -7.853 6.211 -7.584 5.482 C-6.87 3.641 -6.035 1.847 -5.188 0.062 C-2.188 -0.938 -2.188 -0.938 0 0 Z " fill="#316799" transform="translate(422.1875,137.9375)"/>
<path d="M0 0 C2.475 0.99 2.475 0.99 5 2 C5 8.27 5 14.54 5 21 C8.3 21 11.6 21 15 21 C15 22.98 15 24.96 15 27 C13.105 27.196 11.209 27.382 9.312 27.562 C8.257 27.667 7.201 27.771 6.113 27.879 C3.186 27.993 0.829 27.708 -2 27 C-3.056 21.237 -2.948 15.894 -2.562 10.062 C-2.51 9.188 -2.458 8.313 -2.404 7.412 C-2.276 5.274 -2.139 3.137 -2 1 C-1.34 0.67 -0.68 0.34 0 0 Z " fill="#366C9E" transform="translate(449,137)"/>
<path d="M0 0 C1.98 0 3.96 0 6 0 C6 6.6 6 13.2 6 20 C7.98 19.67 9.96 19.34 12 19 C12.99 19.33 13.98 19.66 15 20 C15.33 19.34 15.66 18.68 16 18 C16.381 20.326 16.713 22.661 17 25 C16 26 16 26 12.402 26.098 C10.914 26.091 9.426 26.079 7.938 26.062 C7.179 26.058 6.42 26.053 5.639 26.049 C3.759 26.037 1.88 26.019 0 26 C-1.149 23.701 -1.129 22.379 -1.133 19.824 C-1.134 18.996 -1.135 18.168 -1.137 17.314 C-1.133 16.448 -1.129 15.581 -1.125 14.688 C-1.129 13.832 -1.133 12.977 -1.137 12.096 C-1.13 7.937 -1.053 4.054 0 0 Z " fill="#376EA2" transform="translate(325,138)"/>
<path d="M0 0 C4.95 0 9.9 0 15 0 C15 2.31 15 4.62 15 7 C14.34 7 13.68 7 13 7 C13 5.35 13 3.7 13 2 C9.37 2 5.74 2 2 2 C2 19.16 2 36.32 2 54 C13.051 54.38 13.051 54.38 16 51 C16 52.65 16 54.3 16 56 C12.326 56.853 8.955 57.108 5.188 57.062 C4.212 57.053 3.236 57.044 2.23 57.035 C1.126 57.018 1.126 57.018 0 57 C-1.142 54.715 -1.127 53.446 -1.129 50.908 C-1.133 50.063 -1.136 49.218 -1.139 48.347 C-1.137 47.429 -1.135 46.512 -1.133 45.566 C-1.134 44.619 -1.135 43.671 -1.136 42.695 C-1.136 40.681 -1.135 38.668 -1.13 36.655 C-1.125 33.606 -1.13 30.558 -1.137 27.51 C-1.136 25.549 -1.135 23.589 -1.133 21.629 C-1.135 20.73 -1.137 19.83 -1.139 18.903 C-1.116 12.549 -0.643 6.322 0 0 Z " fill="#306191" transform="translate(197,52)"/>
<path d="M0 0 C0.99 0.495 0.99 0.495 2 1 C2 12.88 2 24.76 2 37 C5.63 37 9.26 37 13 37 C13 26.11 13 15.22 13 4 C13.33 4 13.66 4 14 4 C14.33 15.55 14.66 27.1 15 39 C10 40 10 40 0 39 C0 26.13 0 13.26 0 0 Z " fill="#2E5F8F" transform="translate(231,69)"/>
<path d="M0 0 C1.281 0.102 2.563 0.204 3.883 0.309 C4.87 0.392 5.858 0.476 6.875 0.562 C6.545 1.222 6.215 1.882 5.875 2.562 C1.255 2.562 -3.365 2.562 -8.125 2.562 C-8.125 10.153 -8.125 17.743 -8.125 25.562 C-3.175 25.562 1.775 25.562 6.875 25.562 C7.205 24.572 7.535 23.583 7.875 22.562 C8.205 23.882 8.535 25.202 8.875 26.562 C2.935 26.562 -3.005 26.562 -9.125 26.562 C-9.125 17.983 -9.125 9.403 -9.125 0.562 C-6.072 -0.964 -3.367 -0.275 0 0 Z M-4.125 15.562 C-0.825 15.562 2.475 15.562 5.875 15.562 C5.875 15.893 5.875 16.222 5.875 16.562 C2.905 16.562 -0.065 16.562 -3.125 16.562 C-3.125 17.882 -3.125 19.202 -3.125 20.562 C-2.352 20.284 -2.352 20.284 -1.562 20 C1.734 19.408 4.597 19.995 7.875 20.562 C7.875 20.893 7.875 21.222 7.875 21.562 C3.915 21.562 -0.045 21.562 -4.125 21.562 C-4.125 19.583 -4.125 17.602 -4.125 15.562 Z " fill="#3D72A3" transform="translate(526.125,137.4375)"/>
<path d="M0 0 C-0.33 0.33 -0.66 0.66 -1 1 C-1.158 2.998 -1.251 5.001 -1.316 7.004 C-1.358 8.219 -1.4 9.434 -1.443 10.686 C-1.502 12.605 -1.502 12.605 -1.562 14.562 C-1.606 15.846 -1.649 17.129 -1.693 18.451 C-1.8 21.634 -1.902 24.817 -2 28 C-2.33 28 -2.66 28 -3 28 C-3 19.09 -3 10.18 -3 1 C-6.63 1 -10.26 1 -14 1 C-14 15.19 -14 29.38 -14 44 C-14.33 44 -14.66 44 -15 44 C-15.33 29.15 -15.66 14.3 -16 -1 C-4 -2 -4 -2 0 0 Z " fill="#31608D" transform="translate(302,31)"/>
<path d="M0 0 C1.053 0.078 1.053 0.078 2.127 0.158 C3.856 0.288 5.584 0.424 7.312 0.562 C6.983 2.213 6.652 3.863 6.312 5.562 C5.983 4.572 5.652 3.583 5.312 2.562 C0.692 2.562 -3.928 2.562 -8.688 2.562 C-9.017 10.153 -9.348 17.743 -9.688 25.562 C-4.738 25.562 0.212 25.562 5.312 25.562 C5.312 24.243 5.312 22.923 5.312 21.562 C3.002 21.562 0.692 21.562 -1.688 21.562 C-1.688 21.233 -1.688 20.903 -1.688 20.562 C1.283 20.562 4.252 20.562 7.312 20.562 C8.312 23.562 8.312 23.562 7.312 26.562 C1.373 26.562 -4.567 26.562 -10.688 26.562 C-10.688 17.983 -10.688 9.403 -10.688 0.562 C-6.994 -0.669 -3.807 -0.309 0 0 Z " fill="#4072A0" transform="translate(389.6875,137.4375)"/>
<path d="M0 0 C0.33 0 0.66 0 1 0 C1 9.57 1 19.14 1 29 C5.29 29 9.58 29 14 29 C14 29.66 14 30.32 14 31 C12.439 31.197 10.876 31.382 9.312 31.562 C8.442 31.667 7.572 31.771 6.676 31.879 C3.922 32.004 1.681 31.583 -1 31 C-1.025 26.907 -1.043 22.813 -1.055 18.72 C-1.06 17.327 -1.067 15.934 -1.075 14.541 C-1.088 12.54 -1.093 10.54 -1.098 8.539 C-1.103 7.335 -1.108 6.13 -1.114 4.889 C-1 2 -1 2 0 0 Z " fill="#316291" transform="translate(287,77)"/>
<path d="M0 0 C0 5.28 0 10.56 0 16 C-0.33 16 -0.66 16 -1 16 C-1 11.05 -1 6.1 -1 1 C-2.32 1.33 -3.64 1.66 -5 2 C-7.333 2.039 -9.667 2.045 -12 2 C-11.988 2.999 -11.977 3.998 -11.965 5.027 C-11.956 6.318 -11.947 7.608 -11.938 8.938 C-11.926 10.225 -11.914 11.513 -11.902 12.84 C-12 16 -12 16 -13 17 C-15.671 17.141 -18.324 17.042 -21 17 C-21 18.65 -21 20.3 -21 22 C-21.33 22 -21.66 22 -22 22 C-22 20.02 -22 18.04 -22 16 C-18.535 15.505 -18.535 15.505 -15 15 C-14.67 10.05 -14.34 5.1 -14 0 C-8.589 -0.84 -5.627 -0.938 0 0 Z " fill="#2A5A8A" transform="translate(433,37)"/>
<path d="M0 0 C0.33 0 0.66 0 1 0 C1 12.21 1 24.42 1 37 C-3.29 36.67 -7.58 36.34 -12 36 C-12 35.67 -12 35.34 -12 35 C-8.37 35 -4.74 35 -1 35 C-1.072 34.212 -1.144 33.425 -1.219 32.613 C-1.891 24.72 -2.117 16.919 -2 9 C-1.67 9 -1.34 9 -1 9 C-0.67 6.03 -0.34 3.06 0 0 Z " fill="#2A5C8C" transform="translate(189,71)"/>
<path d="M0 0 C0.66 0 1.32 0 2 0 C2 7.26 2 14.52 2 22 C5.96 22 9.92 22 14 22 C14 21.34 14 20.68 14 20 C11.36 20 8.72 20 6 20 C6 19.67 6 19.34 6 19 C8.97 19 11.94 19 15 19 C15 20.32 15 21.64 15 23 C10.05 23.33 5.1 23.66 0 24 C-1.158 21.685 -1.129 20.329 -1.133 17.754 C-1.134 16.917 -1.135 16.079 -1.137 15.217 C-1.133 14.341 -1.129 13.465 -1.125 12.562 C-1.129 11.69 -1.133 10.818 -1.137 9.92 C-1.135 9.081 -1.134 8.243 -1.133 7.379 C-1.132 6.611 -1.131 5.844 -1.129 5.053 C-1 3 -1 3 0 0 Z " fill="#2F6090" transform="translate(325,140)"/>
<path d="M0 0 C0 0.33 0 0.66 0 1 C-5.94 1.495 -5.94 1.495 -12 2 C-12.33 9.26 -12.66 16.52 -13 24 C-10.03 24 -7.06 24 -4 24 C-4 24.33 -4 24.66 -4 25 C-7.3 25 -10.6 25 -14 25 C-14.195 21.604 -14.381 18.209 -14.562 14.812 C-14.619 13.853 -14.675 12.893 -14.732 11.904 C-14.781 10.973 -14.829 10.042 -14.879 9.082 C-14.926 8.228 -14.973 7.375 -15.022 6.495 C-14.999 3.876 -14.592 1.546 -14 -1 C-9.047 -2.598 -4.867 -1.283 0 0 Z " fill="#3F719F" transform="translate(220,139)"/>
<path d="M0 0 C0.33 0 0.66 0 1 0 C1 7.26 1 14.52 1 22 C5.62 22 10.24 22 15 22 C15 21.34 15 20.68 15 20 C11.7 20 8.4 20 5 20 C5 19.67 5 19.34 5 19 C8.96 18.67 12.92 18.34 17 18 C17 19.98 17 21.96 17 24 C11.39 23.67 5.78 23.34 0 23 C0 15.41 0 7.82 0 0 Z " fill="#2E5C8A" transform="translate(427,140)"/>
<path d="M0 0 C0.33 0.66 0.66 1.32 1 2 C0.578 2.401 0.157 2.802 -0.277 3.215 C-4.227 7.313 -5.682 10.184 -5.895 15.887 C-6.002 18.044 -6.415 19.926 -7 22 C-9.628 17.516 -9.076 13.944 -8 9 C-6.438 5.438 -6.438 5.438 -5 3 C-4.34 3 -3.68 3 -3 3 C-2.67 2.34 -2.34 1.68 -2 1 C-1.34 0.67 -0.68 0.34 0 0 Z " fill="#306293" transform="translate(149,76)"/>
<path d="M0 0 C0.33 0 0.66 0 1 0 C1 7.26 1 14.52 1 22 C1.99 22 2.98 22 4 22 C4 19.36 4 16.72 4 14 C6.31 14 8.62 14 11 14 C11 14.66 11 15.32 11 16 C9.35 16 7.7 16 6 16 C5.67 18.31 5.34 20.62 5 23 C3.35 23 1.7 23 0 23 C0 15.41 0 7.82 0 0 Z " fill="#2D5D8C" transform="translate(280,140)"/>
<path d="M0 0 C0.66 0.33 1.32 0.66 2 1 C2 1.66 2 2.32 2 3 C2.887 2.67 3.774 2.34 4.688 2 C10.313 0.35 16.198 0.843 22 1 C18.646 3.236 16.581 3.524 12.625 4.062 C8.72 4.606 4.858 5.184 1 6 C0.34 4.35 -0.32 2.7 -1 1 C-0.67 0.67 -0.34 0.34 0 0 Z " fill="#34699B" transform="translate(147,62)"/>
<path d="M0 0 C1.32 0.33 2.64 0.66 4 1 C4.061 1.987 4.121 2.975 4.184 3.992 C4.267 5.274 4.351 6.555 4.438 7.875 C4.519 9.151 4.6 10.427 4.684 11.742 C4.792 14.883 4.792 14.883 6 17 C5.34 17 4.68 17 4 17 C4 17.66 4 18.32 4 19 C3.34 19 2.68 19 2 19 C1.67 19.66 1.34 20.32 1 21 C1.33 14.4 1.66 7.8 2 1 C1.34 0.67 0.68 0.34 0 0 Z " fill="#255584" transform="translate(272,138)"/>
<path d="M0 0 C5.023 -0.295 7.895 0.015 12 3 C11.67 4.32 11.34 5.64 11 7 C9.68 7.33 8.36 7.66 7 8 C7 7.01 7 6.02 7 5 C7.99 5 8.98 5 10 5 C10 4.34 10 3.68 10 3 C6.04 3 2.08 3 -2 3 C-1.34 2.67 -0.68 2.34 0 2 C0 1.34 0 0.68 0 0 Z M2 4 C3.65 4 5.3 4 7 4 C7 4.33 7 4.66 7 5 C5.35 5 3.7 5 2 5 C2 4.67 2 4.34 2 4 Z " fill="#306191" transform="translate(151,138)"/>
<path d="M0 0 C1.207 0.031 1.207 0.031 2.438 0.062 C3.428 2.042 4.418 4.023 5.438 6.062 C4.777 6.722 4.118 7.382 3.438 8.062 C3.108 6.412 2.777 4.762 2.438 3.062 C-0.93 4.456 -2.548 6.041 -4.562 9.062 C-5.774 5.427 -5.155 4.425 -3.562 1.062 C-2.562 0.062 -2.562 0.062 0 0 Z " fill="#2F6191" transform="translate(309.5625,137.9375)"/>
<path d="M0 0 C0.382 1.656 0.714 3.325 1 5 C0 6 0 6 -2.5 6.125 C-5 6 -5 6 -6 5 C-6.041 3.334 -6.043 1.666 -6 0 C-3.509 -1.245 -2.589 -0.777 0 0 Z " fill="#336594" transform="translate(195,158)"/>
<path d="M0 0 C0.66 0.66 1.32 1.32 2 2 C0.548 3.506 -0.912 5.005 -2.375 6.5 C-3.187 7.335 -3.999 8.171 -4.836 9.031 C-7 11 -7 11 -9 11 C-7.605 6.56 -5.439 4.095 -2 1 C-1.34 0.67 -0.68 0.34 0 0 Z " fill="#316495" transform="translate(537,36)"/>
<path d="M0 0 C-0.33 4.29 -0.66 8.58 -1 13 C-1.66 12.67 -2.32 12.34 -3 12 C-3 8.7 -3 5.4 -3 2 C-6.63 2 -10.26 2 -14 2 C-8.678 -1.548 -6.279 -0.807 0 0 Z " fill="#366694" transform="translate(448,52)"/>
<path d="M0 0 C0 1.98 0 3.96 0 6 C-3.63 5.67 -7.26 5.34 -11 5 C-11 4.67 -11 4.34 -11 4 C-8.03 4 -5.06 4 -2 4 C-2 3.34 -2 2.68 -2 2 C-4.64 2 -7.28 2 -10 2 C-6.17 -0.553 -4.417 -1.472 0 0 Z " fill="#214F7D" transform="translate(533,148)"/>
<path d="M0 0 C0 1.98 0 3.96 0 6 C-3.63 5.67 -7.26 5.34 -11 5 C-11 4.67 -11 4.34 -11 4 C-8.03 4 -5.06 4 -2 4 C-2 3.34 -2 2.68 -2 2 C-4.97 2 -7.94 2 -11 2 C-6.784 -0.108 -4.602 -0.177 0 0 Z " fill="#1F4D7B" transform="translate(395,148)"/>
<path d="M0 0 C1.281 0.102 2.563 0.204 3.883 0.309 C4.87 0.392 5.858 0.476 6.875 0.562 C6.545 1.222 6.215 1.882 5.875 2.562 C3.326 2.875 0.871 3.076 -1.688 3.188 C-2.754 3.246 -2.754 3.246 -3.842 3.305 C-5.602 3.399 -7.364 3.482 -9.125 3.562 C-9.125 2.572 -9.125 1.583 -9.125 0.562 C-6.072 -0.964 -3.367 -0.275 0 0 Z " fill="#4876A0" transform="translate(526.125,137.4375)"/>
<path d="M0 0 C0 0.66 0 1.32 0 2 C-0.99 2.495 -0.99 2.495 -2 3 C-2 6.96 -2 10.92 -2 15 C-2.99 14.67 -3.98 14.34 -5 14 C-5.081 12.042 -5.139 10.084 -5.188 8.125 C-5.222 7.034 -5.257 5.944 -5.293 4.82 C-5.196 3.89 -5.1 2.959 -5 2 C-2 0 -2 0 0 0 Z " fill="#295B8B" transform="translate(456,42)"/>
<path d="M0 0 C2 2 2 2 2.25 5.75 C2.169 9.46 1.385 12.538 0 16 C-0.66 16 -1.32 16 -2 16 C-1.34 10.72 -0.68 5.44 0 0 Z " fill="#27598B" transform="translate(406,76)"/>
<path d="M0 0 C-0.33 3.96 -0.66 7.92 -1 12 C-1.33 12 -1.66 12 -2 12 C-2 9.03 -2 6.06 -2 3 C-4.64 3 -7.28 3 -10 3 C-7.029 0.029 -4.1 0 0 0 Z " fill="#295988" transform="translate(447,94)"/>
<path d="M0 0 C2.97 0 5.94 0 9 0 C10 3 10 3 9 6 C5.37 6 1.74 6 -2 6 C-2 5.67 -2 5.34 -2 5 C0.97 5 3.94 5 7 5 C7 3.68 7 2.36 7 1 C4.69 1 2.38 1 0 1 C0 0.67 0 0.34 0 0 Z " fill="#4677A3" transform="translate(388,158)"/>
<path d="M0 0 C-0.33 0.99 -0.66 1.98 -1 3 C-5.62 3 -10.24 3 -15 3 C-12.431 0.431 -11.069 0.629 -7.5 0.375 C-6.03 0.263 -6.03 0.263 -4.531 0.148 C-3.023 0.06 -1.511 0 0 0 Z " fill="#306598" transform="translate(90,154)"/>
<path d="M0 0 C0.33 0 0.66 0 1 0 C1 1.65 1 3.3 1 5 C-2.674 5.853 -6.045 6.108 -9.812 6.062 C-10.788 6.053 -11.764 6.044 -12.77 6.035 C-13.506 6.024 -14.242 6.012 -15 6 C-15.33 5.34 -15.66 4.68 -16 4 C-15.34 3.01 -14.68 2.02 -14 1 C-14 1.99 -14 2.98 -14 4 C-7.565 3.505 -7.565 3.505 -1 3 C-0.67 2.01 -0.34 1.02 0 0 Z " fill="#356898" transform="translate(212,103)"/>
<path d="M0 0 C0.99 0.33 1.98 0.66 3 1 C2.67 1.33 2.34 1.66 2 2 C1.768 3.515 1.588 5.038 1.438 6.562 C1.354 7.389 1.27 8.215 1.184 9.066 C1.123 9.704 1.062 10.343 1 11 C0.34 10.67 -0.32 10.34 -1 10 C-1.027 8.521 -1.046 7.042 -1.062 5.562 C-1.074 4.739 -1.086 3.915 -1.098 3.066 C-1 1 -1 1 0 0 Z " fill="#27598A" transform="translate(544,153)"/>
<path d="M0 0 C0.66 0.33 1.32 0.66 2 1 C2 1.66 2 2.32 2 3 C5.465 2.505 5.465 2.505 9 2 C4.375 6 4.375 6 1 6 C0.34 4.35 -0.32 2.7 -1 1 C-0.67 0.67 -0.34 0.34 0 0 Z " fill="#2E6193" transform="translate(147,62)"/>
<path d="M0 0 C-1.65 1.65 -3.3 3.3 -5 5 C-5.99 4.67 -6.98 4.34 -8 4 C-7 1 -7 1 -5.125 -0.25 C-3 -1 -3 -1 0 0 Z " fill="#2E6191" transform="translate(152,56)"/>
<path d="M0 0 C0 1.65 0 3.3 0 5 C-1.98 5 -3.96 5 -6 5 C-6 3.68 -6 2.36 -6 1 C-5.34 1 -4.68 1 -4 1 C-4 1.66 -4 2.32 -4 3 C-3.526 2.505 -3.051 2.01 -2.562 1.5 C-1 0 -1 0 0 0 Z " fill="#30608D" transform="translate(304,159)"/>
<path d="M0 0 C2 1 2 1 2 1 Z M2 1 C2.66 1.33 3.32 1.66 4 2 C3.34 3.32 2.68 4.64 2 6 C1.01 6 0.02 6 -1 6 C-1 5.01 -1 4.02 -1 3 C-0.01 3 0.98 3 2 3 C2 2.34 2 1.68 2 1 Z M-6 2 C-4.35 2 -2.7 2 -1 2 C-1 2.33 -1 2.66 -1 3 C-2.65 3 -4.3 3 -6 3 C-6 2.67 -6 2.34 -6 2 Z " fill="#2B5B8A" transform="translate(159,140)"/>
<path d="M0 0 C0.99 0.33 1.98 0.66 3 1 C3.33 3.97 3.66 6.94 4 10 C3.34 10 2.68 10 2 10 C1.34 6.7 0.68 3.4 0 0 Z " fill="#285A8A" transform="translate(488,144)"/>
<path d="M0 0 C4.29 0 8.58 0 13 0 C13 0.99 13 1.98 13 3 C8.71 2.34 4.42 1.68 0 1 C0 0.67 0 0.34 0 0 Z " fill="#2E6293" transform="translate(53,101)"/>
<path d="M0 0 C1.937 -0.054 3.875 -0.093 5.812 -0.125 C6.891 -0.148 7.97 -0.171 9.082 -0.195 C12 0 12 0 15 2 C13.344 2.382 11.675 2.714 10 3 C9.67 2.67 9.34 2.34 9 2 C7.481 1.928 5.958 1.916 4.438 1.938 C3.198 1.951 3.198 1.951 1.934 1.965 C0.976 1.982 0.976 1.982 0 2 C0 1.34 0 0.68 0 0 Z " fill="#3D6C98" transform="translate(547,32)"/>
<path d="M0 0 C1.32 0.33 2.64 0.66 4 1 C4 1.66 4 2.32 4 3 C1 5 1 5 -2 5 C-2 4.01 -2 3.02 -2 2 C-1.34 2 -0.68 2 0 2 C0 1.34 0 0.68 0 0 Z " fill="#336493" transform="translate(146,156)"/>
<path d="M0 0 C0 1.65 0 3.3 0 5 C-0.99 5 -1.98 5 -3 5 C-3 3.68 -3 2.36 -3 1 C-1 0 -1 0 0 0 Z M-6 5 C-5.01 5 -4.02 5 -3 5 C-3 5.66 -3 6.32 -3 7 C-4.65 7 -6.3 7 -8 7 C-7.34 6.34 -6.68 5.68 -6 5 Z " fill="#255788" transform="translate(509,145)"/>
<path d="M0 0 C0.33 0.66 0.66 1.32 1 2 C1.619 1.794 2.238 1.588 2.875 1.375 C3.576 1.251 4.278 1.127 5 1 C5.66 1.66 6.32 2.32 7 3 C6.34 3.66 5.68 4.32 5 5 C2.375 4.625 2.375 4.625 0 4 C-0.33 3.01 -0.66 2.02 -1 1 C-0.67 0.67 -0.34 0.34 0 0 Z " fill="#336391" transform="translate(180,160)"/>
<path d="M0 0 C0.33 0 0.66 0 1 0 C1.779 5.021 2.13 8.977 1 14 C0.67 14 0.34 14 0 14 C-0.779 8.979 -1.13 5.023 0 0 Z " fill="#316190" transform="translate(452,143)"/>
<path d="M0 0 C2 2 2 2 2.195 4.164 C2.161 5.382 2.161 5.382 2.125 6.625 C2.107 7.442 2.089 8.26 2.07 9.102 C2.047 9.728 2.024 10.355 2 11 C1.01 11.495 1.01 11.495 0 12 C0.33 9.36 0.66 6.72 1 4 C0.34 4 -0.32 4 -1 4 C-0.67 2.68 -0.34 1.36 0 0 Z " fill="#295888" transform="translate(329,74)"/>
<path d="M0 0 C2.31 0 4.62 0 7 0 C7 0.66 7 1.32 7 2 C5.35 2 3.7 2 2 2 C1.67 2.66 1.34 3.32 1 4 C0.67 2.68 0.34 1.36 0 0 Z " fill="#2D5F90" transform="translate(284,154)"/>
<path d="M0 0 C0.248 0.639 0.495 1.279 0.75 1.938 C1.816 4.187 1.816 4.187 4.125 4.75 C4.744 4.833 5.363 4.915 6 5 C4.35 5.33 2.7 5.66 1 6 C-0.062 4.125 -0.062 4.125 -1 2 C-0.67 1.34 -0.34 0.68 0 0 Z " fill="#2D5E8E" transform="translate(315,158)"/>
<path d="M0 0 C0.598 0.351 1.196 0.701 1.812 1.062 C1.152 1.722 0.493 2.382 -0.188 3.062 C-2.812 2.688 -2.812 2.688 -5.188 2.062 C-5.188 1.403 -5.188 0.743 -5.188 0.062 C-2.188 -0.938 -2.188 -0.938 0 0 Z " fill="#4776A0" transform="translate(422.1875,137.9375)"/>
<path d="M0 0 C0.66 0.66 1.32 1.32 2 2 C0.35 3.32 -1.3 4.64 -3 6 C-3 3 -3 3 -1.5 1.312 C-0.757 0.663 -0.757 0.663 0 0 Z " fill="#306393" transform="translate(359,57)"/>
<path d="M0 0 C0.66 0.66 1.32 1.32 2 2 C1.01 2 0.02 2 -1 2 C-0.67 1.34 -0.34 0.68 0 0 Z M-5 7 C-3.515 7.99 -3.515 7.99 -2 9 C-2.99 9 -3.98 9 -5 9 C-5 8.34 -5 7.68 -5 7 Z " fill="#32689B" transform="translate(556,86)"/>
<path d="M0 0 C0 0.66 0 1.32 0 2 C-1.98 2.33 -3.96 2.66 -6 3 C-6.33 2.34 -6.66 1.68 -7 1 C-4.509 0.313 -2.621 0 0 0 Z " fill="#376897" transform="translate(430,36)"/>
<path d="M0 0 C1.207 0.031 1.207 0.031 2.438 0.062 C2.767 0.722 3.098 1.382 3.438 2.062 C1.062 2.688 1.062 2.688 -1.562 3.062 C-2.223 2.403 -2.882 1.743 -3.562 1.062 C-2.562 0.062 -2.562 0.062 0 0 Z " fill="#42709B" transform="translate(309.5625,137.9375)"/>
<path d="M0 0 C0.66 0.66 1.32 1.32 2 2 C-1 4 -1 4 -3.188 3.625 C-3.786 3.419 -4.384 3.213 -5 3 C-3.35 2.01 -1.7 1.02 0 0 Z " fill="#2E5F8F" transform="translate(322,93)"/>
<path d="M0 0 C1.65 0 3.3 0 5 0 C4.67 0.66 4.34 1.32 4 2 C1.438 2.625 1.438 2.625 -1 3 C-0.67 2.01 -0.34 1.02 0 0 Z " fill="#2E6598" transform="translate(85,163)"/>
<path d="M0 0 C-0.66 1.32 -1.32 2.64 -2 4 C-2.99 4 -3.98 4 -5 4 C-5 3.34 -5 2.68 -5 2 C-2 0 -2 0 0 0 Z " fill="#316190" transform="translate(370,155)"/>
<path d="M0 0 C1.98 0.99 1.98 0.99 4 2 C3.34 3.65 2.68 5.3 2 7 C1.67 7 1.34 7 1 7 C0.67 4.69 0.34 2.38 0 0 Z " fill="#2E5E8E" transform="translate(511,143)"/>
<path d="M0 0 C0.99 1.32 1.98 2.64 3 4 C2.34 4.99 1.68 5.98 1 7 C0.67 4.69 0.34 2.38 0 0 Z " fill="#376B9C" transform="translate(517,101)"/>
<path d="M0 0 C0.99 0.33 1.98 0.66 3 1 C1 3 1 3 -1.625 3.125 C-2.409 3.084 -3.192 3.042 -4 3 C-2.188 1.438 -2.188 1.438 0 0 Z " fill="#316392" transform="translate(494,53)"/>
<path d="M0 0 C0.99 0.33 1.98 0.66 3 1 C2.34 1.66 1.68 2.32 1 3 C0.67 2.01 0.34 1.02 0 0 Z " fill="#306191" transform="translate(144,79)"/>
<path d="M0 0 C2.125 0.375 2.125 0.375 4 1 C4 1.66 4 2.32 4 3 C1.03 2.505 1.03 2.505 -2 2 C-1.34 1.34 -0.68 0.68 0 0 Z " fill="#316392" transform="translate(174,52)"/>
<path d="M0 0 C0.66 0.66 1.32 1.32 2 2 C0.68 2.99 -0.64 3.98 -2 5 C-2 4.01 -2 3.02 -2 2 C-1.34 2 -0.68 2 0 2 C0 1.34 0 0.68 0 0 Z " fill="#2F6191" transform="translate(295,150)"/>
<path d="M0 0 C0.33 0 0.66 0 1 0 C1 1.65 1 3.3 1 5 C0.01 5 -0.98 5 -2 5 C-1.34 3.35 -0.68 1.7 0 0 Z " fill="#295989" transform="translate(292,145)"/>
<path d="M0 0 C1.32 0.66 2.64 1.32 4 2 C3.67 2.66 3.34 3.32 3 4 C1.68 3.34 0.36 2.68 -1 2 C-0.67 1.34 -0.34 0.68 0 0 Z " fill="#2D5E8E" transform="translate(157,148)"/>
<path d="M0 0 C2 1 2 1 2 1 Z M-1 1 C-0.34 1.66 0.32 2.32 1 3 C-0.485 3.99 -0.485 3.99 -2 5 C-2 2 -2 2 -1 1 Z " fill="#326697" transform="translate(149,139)"/>
<path d="M0 0 C0.99 0.33 1.98 0.66 3 1 C1.515 1.99 1.515 1.99 0 3 C-0.66 2.34 -1.32 1.68 -2 1 C-1.34 0.67 -0.68 0.34 0 0 Z " fill="#306596" transform="translate(149,55)"/>
<path d="M0 0 C1.32 0.66 2.64 1.32 4 2 C2.68 2.33 1.36 2.66 0 3 C0 2.01 0 1.02 0 0 Z " fill="#4977A1" transform="translate(449,137)"/>
<path d="M0 0 C0.66 1.32 1.32 2.64 2 4 C1.01 4 0.02 4 -1 4 C-0.67 2.68 -0.34 1.36 0 0 Z " fill="#2B5D8D" transform="translate(329,74)"/>
<path d="M0 0 C0.66 0.66 1.32 1.32 2 2 C1.01 3.485 1.01 3.485 0 5 C-0.562 3.062 -0.562 3.062 -1 1 C-0.67 0.67 -0.34 0.34 0 0 Z " fill="#2F669A" transform="translate(471,146)"/>
<path d="M0 0 C0.66 0.66 1.32 1.32 2 2 C1.01 2 0.02 2 -1 2 C-0.67 1.34 -0.34 0.68 0 0 Z " fill="#306496" transform="translate(397,100)"/>
<path d="M0 0 C1.485 0.99 1.485 0.99 3 2 C2.01 2.33 1.02 2.66 0 3 C0 2.01 0 1.02 0 0 Z " fill="#33699B" transform="translate(307,64)"/>
<path d="M0 0 C1.32 0.66 2.64 1.32 4 2 C2.35 2.33 0.7 2.66 -1 3 C-0.67 2.01 -0.34 1.02 0 0 Z " fill="#386D9E" transform="translate(558,32)"/>
<path d="M0 0 C0.66 0 1.32 0 2 0 C2.33 0.99 2.66 1.98 3 3 C2.01 3 1.02 3 0 3 C0 2.01 0 1.02 0 0 Z " fill="#2D5E8E" transform="translate(68,24)"/>
<path d="M0 0 C0.66 0.66 1.32 1.32 2 2 C0.515 2.99 0.515 2.99 -1 4 C-0.67 2.68 -0.34 1.36 0 0 Z " fill="#295C8D" transform="translate(417,151)"/>
<path d="M0 0 C0.66 0.99 1.32 1.98 2 3 C1.34 3.66 0.68 4.32 0 5 C-0.33 4.01 -0.66 3.02 -1 2 C-0.67 1.34 -0.34 0.68 0 0 Z " fill="#306395" transform="translate(313,141)"/>
<path d="M0 0 C0.99 0.99 1.98 1.98 3 3 C1.68 2.67 0.36 2.34 -1 2 C-0.67 1.34 -0.34 0.68 0 0 Z " fill="#316698" transform="translate(107,134)"/>
<path d="M0 0 C0.66 0.66 1.32 1.32 2 2 C1.01 2 0.02 2 -1 2 C-0.67 1.34 -0.34 0.68 0 0 Z " fill="#35699A" transform="translate(419,51)"/>
<path d="M0 0 C0.66 0 1.32 0 2 0 C1.67 0.99 1.34 1.98 1 3 C0.67 2.01 0.34 1.02 0 0 Z " fill="#306FA8" transform="translate(18,148)"/>
<path d="M0 0 C2 1 2 1 2 1 Z " fill="#487BAA" transform="translate(495,166)"/>
<path d="" fill="#386EA0" transform="translate(0,0)"/>
<path d="" fill="#3D73A5" transform="translate(0,0)"/>
<path d="M0 0 C0.33 0.66 0.66 1.32 1 2 C0.34 1.67 -0.32 1.34 -1 1 C-0.67 0.67 -0.34 0.34 0 0 Z " fill="#386EA0" transform="translate(281,50)"/>
<path d="" fill="#487AA8" transform="translate(0,0)"/>
<path d="M0 0 C2 1 2 1 2 1 Z " fill="#487EAF" transform="translate(477,166)"/>
<path d="M0 0 C2 1 2 1 2 1 Z " fill="#386A9A" transform="translate(546,161)"/>
<path d="M0 0 C2 1 2 1 2 1 Z " fill="#406D97" transform="translate(202,160)"/>
<path d="" fill="#306EA5" transform="translate(0,0)"/>
<path d="" fill="#386EA0" transform="translate(0,0)"/>
<path d="" fill="#386EA0" transform="translate(0,0)"/>
<path d="M0 0 C2 1 2 1 2 1 Z " fill="#32608D" transform="translate(161,146)"/>
<path d="M0 0 C2 1 2 1 2 1 Z " fill="#386EA0" transform="translate(371,136)"/>
<path d="M0 0 C2 1 2 1 2 1 Z " fill="#336EA6" transform="translate(108,132)"/>
<path d="" fill="#306EA6" transform="translate(0,0)"/>
<path d="" fill="#306EA6" transform="translate(0,0)"/>
<path d="" fill="#2F6FAD" transform="translate(0,0)"/>
<path d="M0 0 C2 1 2 1 2 1 Z " fill="#386EA0" transform="translate(509,111)"/>
<path d="" fill="#3A71A4" transform="translate(0,0)"/>
<path d="" fill="#326697" transform="translate(0,0)"/>
<path d="M0 0 C2 1 2 1 2 1 Z " fill="#386EA0" transform="translate(230,111)"/>
<path d="" fill="#2D6092" transform="translate(0,0)"/>
<path d="M0 0 C2 1 2 1 2 1 Z " fill="#3A71A4" transform="translate(173,110)"/>
<path d="" fill="#306EA5" transform="translate(0,0)"/>
<path d="" fill="#306EA5" transform="translate(0,0)"/>
<path d="M0 0 C2 1 2 1 2 1 Z " fill="#26598A" transform="translate(191,108)"/>
<path d="M0 0 C2 1 2 1 2 1 Z " fill="#3A71A4" transform="translate(581,105)"/>
<path d="M0 0 C2 1 2 1 2 1 Z " fill="#346EA2" transform="translate(136,98)"/>
<path d="M0 0 C2 1 2 1 2 1 Z " fill="#386EA0" transform="translate(348,95)"/>
<path d="M0 0 C2 1 2 1 2 1 Z " fill="#386EA0" transform="translate(227,94)"/>
<path d="" fill="#3A71A4" transform="translate(0,0)"/>
<path d="M0 0 C2 1 2 1 2 1 Z " fill="#4076A7" transform="translate(321,90)"/>
<path d="" fill="#346B9E" transform="translate(0,0)"/>
<path d="" fill="#3A71A4" transform="translate(0,0)"/>
<path d="M0 0 C2 1 2 1 2 1 Z " fill="#306EA5" transform="translate(136,85)"/>
<path d="" fill="#3A71A4" transform="translate(0,0)"/>
<path d="M0 0 C2 1 2 1 2 1 Z " fill="#356898" transform="translate(413,66)"/>
<path d="M0 0 C2 1 2 1 2 1 Z " fill="#386EA0" transform="translate(554,62)"/>
<path d="" fill="#386EA0" transform="translate(0,0)"/>
<path d="" fill="#3A71A4" transform="translate(0,0)"/>
<path d="" fill="#366B9C" transform="translate(0,0)"/>
<path d="" fill="#4076A7" transform="translate(0,0)"/>
<path d="" fill="#386EA0" transform="translate(0,0)"/>
<path d="M0 0 C2 1 2 1 2 1 Z " fill="#306EA5" transform="translate(43,48)"/>
<path d="" fill="#386EA0" transform="translate(0,0)"/>
<path d="" fill="#386EA0" transform="translate(0,0)"/>
<path d="" fill="#4977A1" transform="translate(0,0)"/>
<path d="" fill="#4977A1" transform="translate(0,0)"/>
<path d="" fill="#4977A1" transform="translate(0,0)"/>
<path d="" fill="#406D97" transform="translate(0,0)"/>
<path d="" fill="#406D97" transform="translate(0,0)"/>
<path d="" fill="#4977A1" transform="translate(0,0)"/>
<path d="" fill="#4977A1" transform="translate(0,0)"/>
<path d="" fill="#406D97" transform="translate(0,0)"/>
<path d="" fill="#4977A1" transform="translate(0,0)"/>
<path d="" fill="#4977A1" transform="translate(0,0)"/>
<path d="" fill="#406D97" transform="translate(0,0)"/>
<path d="" fill="#4977A1" transform="translate(0,0)"/>
<path d="" fill="#4977A1" transform="translate(0,0)"/>
<path d="" fill="#386EA0" transform="translate(0,0)"/>
<path d="" fill="#30689D" transform="translate(0,0)"/>
<path d="" fill="#487EAF" transform="translate(0,0)"/>
<path d="" fill="#4977A1" transform="translate(0,0)"/>
<path d="" fill="#4977A1" transform="translate(0,0)"/>
<path d="" fill="#487EAF" transform="translate(0,0)"/>
<path d="" fill="#487EAF" transform="translate(0,0)"/>
<path d="" fill="#487EAF" transform="translate(0,0)"/>
<path d="" fill="#487EAF" transform="translate(0,0)"/>
<path d="" fill="#487EAF" transform="translate(0,0)"/>
<path d="" fill="#406D97" transform="translate(0,0)"/>
<path d="" fill="#3C75A9" transform="translate(0,0)"/>
<path d="" fill="#487EAF" transform="translate(0,0)"/>
<path d="" fill="#306EA5" transform="translate(0,0)"/>
<path d="" fill="#356898" transform="translate(0,0)"/>
<path d="" fill="#4977A1" transform="translate(0,0)"/>
<path d="" fill="#406D97" transform="translate(0,0)"/>
<path d="" fill="#406D97" transform="translate(0,0)"/>
<path d="" fill="#406D97" transform="translate(0,0)"/>
<path d="" fill="#4977A1" transform="translate(0,0)"/>
<path d="" fill="#487EAF" transform="translate(0,0)"/>
<path d="" fill="#32608D" transform="translate(0,0)"/>
<path d="" fill="#406D97" transform="translate(0,0)"/>
<path d="" fill="#4977A1" transform="translate(0,0)"/>
<path d="" fill="#406D97" transform="translate(0,0)"/>
<path d="" fill="#406D97" transform="translate(0,0)"/>
<path d="" fill="#356898" transform="translate(0,0)"/>
<path d="" fill="#406D97" transform="translate(0,0)"/>
<path d="" fill="#4977A1" transform="translate(0,0)"/>
<path d="" fill="#487EAF" transform="translate(0,0)"/>
<path d="" fill="#356898" transform="translate(0,0)"/>
<path d="" fill="#285786" transform="translate(0,0)"/>
<path d="" fill="#32608D" transform="translate(0,0)"/>
<path d="" fill="#386EA0" transform="translate(0,0)"/>
<path d="" fill="#356898" transform="translate(0,0)"/>
<path d="" fill="#32608D" transform="translate(0,0)"/>
<path d="" fill="#356898" transform="translate(0,0)"/>
<path d="" fill="#356898" transform="translate(0,0)"/>
<path d="" fill="#4977A1" transform="translate(0,0)"/>
<path d="" fill="#487EAF" transform="translate(0,0)"/>
<path d="" fill="#2E6295" transform="translate(0,0)"/>
<path d="" fill="#2E6295" transform="translate(0,0)"/>
<path d="" fill="#487EAF" transform="translate(0,0)"/>
<path d="" fill="#3C75A9" transform="translate(0,0)"/>
<path d="" fill="#2E6295" transform="translate(0,0)"/>
<path d="" fill="#386EA0" transform="translate(0,0)"/>
<path d="" fill="#487EAF" transform="translate(0,0)"/>
<path d="" fill="#356898" transform="translate(0,0)"/>
<path d="" fill="#487EAF" transform="translate(0,0)"/>
<path d="" fill="#487EAF" transform="translate(0,0)"/>
<path d="" fill="#3C75A9" transform="translate(0,0)"/>
<path d="" fill="#2E6295" transform="translate(0,0)"/>
<path d="" fill="#487EAF" transform="translate(0,0)"/>
<path d="" fill="#487EAF" transform="translate(0,0)"/>
<path d="" fill="#30689D" transform="translate(0,0)"/>
<path d="" fill="#285786" transform="translate(0,0)"/>
<path d="" fill="#487EAF" transform="translate(0,0)"/>
<path d="" fill="#487EAF" transform="translate(0,0)"/>
<path d="" fill="#356898" transform="translate(0,0)"/>
<path d="" fill="#386EA0" transform="translate(0,0)"/>
<path d="" fill="#406D97" transform="translate(0,0)"/>
<path d="" fill="#356898" transform="translate(0,0)"/>
<path d="" fill="#30689D" transform="translate(0,0)"/>
<path d="" fill="#285786" transform="translate(0,0)"/>
<path d="" fill="#386EA0" transform="translate(0,0)"/>
<path d="" fill="#406D97" transform="translate(0,0)"/>
<path d="" fill="#386EA0" transform="translate(0,0)"/>
<path d="" fill="#356898" transform="translate(0,0)"/>
<path d="" fill="#386EA0" transform="translate(0,0)"/>
<path d="" fill="#386EA0" transform="translate(0,0)"/>
<path d="" fill="#487EAF" transform="translate(0,0)"/>
<path d="" fill="#386EA0" transform="translate(0,0)"/>
<path d="" fill="#386EA0" transform="translate(0,0)"/>
<path d="" fill="#386EA0" transform="translate(0,0)"/>
<path d="" fill="#356898" transform="translate(0,0)"/>
<path d="" fill="#356898" transform="translate(0,0)"/>
<path d="" fill="#386EA0" transform="translate(0,0)"/>
<path d="" fill="#3C75A9" transform="translate(0,0)"/>
<path d="" fill="#1E4C7B" transform="translate(0,0)"/>
<path d="" fill="#32608D" transform="translate(0,0)"/>
<path d="" fill="#32608D" transform="translate(0,0)"/>
<path d="" fill="#32608D" transform="translate(0,0)"/>
<path d="" fill="#356898" transform="translate(0,0)"/>
<path d="" fill="#386EA0" transform="translate(0,0)"/>
<path d="" fill="#32608D" transform="translate(0,0)"/>
<path d="" fill="#386EA0" transform="translate(0,0)"/>
<path d="" fill="#386EA0" transform="translate(0,0)"/>
<path d="" fill="#2E6295" transform="translate(0,0)"/>
<path d="" fill="#2E6295" transform="translate(0,0)"/>
<path d="" fill="#32608D" transform="translate(0,0)"/>
<path d="" fill="#487EAF" transform="translate(0,0)"/>
<path d="" fill="#487EAF" transform="translate(0,0)"/>
<path d="" fill="#356898" transform="translate(0,0)"/>
<path d="" fill="#4977A1" transform="translate(0,0)"/>
<path d="" fill="#356898" transform="translate(0,0)"/>
<path d="" fill="#487EAF" transform="translate(0,0)"/>
<path d="" fill="#386EA0" transform="translate(0,0)"/>
<path d="" fill="#3C75A9" transform="translate(0,0)"/>
<path d="" fill="#356898" transform="translate(0,0)"/>
<path d="" fill="#30689D" transform="translate(0,0)"/>
<path d="" fill="#356898" transform="translate(0,0)"/>
<path d="" fill="#3C75A9" transform="translate(0,0)"/>
<path d="" fill="#3C75A9" transform="translate(0,0)"/>
<path d="" fill="#356898" transform="translate(0,0)"/>
<path d="" fill="#386EA0" transform="translate(0,0)"/>
<path d="" fill="#3C75A9" transform="translate(0,0)"/>
<path d="" fill="#3C75A9" transform="translate(0,0)"/>
<path d="" fill="#3C75A9" transform="translate(0,0)"/>
<path d="" fill="#386EA0" transform="translate(0,0)"/>
<path d="" fill="#386EA0" transform="translate(0,0)"/>
<path d="" fill="#3C75A9" transform="translate(0,0)"/>
<path d="" fill="#3C75A9" transform="translate(0,0)"/>
<path d="" fill="#3C75A9" transform="translate(0,0)"/>
<path d="" fill="#3C75A9" transform="translate(0,0)"/>
<path d="" fill="#386EA0" transform="translate(0,0)"/>
<path d="" fill="#306FA8" transform="translate(0,0)"/>
<path d="" fill="#30689D" transform="translate(0,0)"/>
<path d="" fill="#306EA5" transform="translate(0,0)"/>
<path d="" fill="#306EA5" transform="translate(0,0)"/>
<path d="" fill="#30689D" transform="translate(0,0)"/>
<path d="" fill="#30689D" transform="translate(0,0)"/>
<path d="" fill="#3C75A9" transform="translate(0,0)"/>
<path d="" fill="#306EA5" transform="translate(0,0)"/>
<path d="" fill="#2E6295" transform="translate(0,0)"/>
<path d="" fill="#2E6295" transform="translate(0,0)"/>
<path d="" fill="#285786" transform="translate(0,0)"/>
<path d="" fill="#3C75A9" transform="translate(0,0)"/>
<path d="" fill="#285786" transform="translate(0,0)"/>
<path d="" fill="#306FA8" transform="translate(0,0)"/>
<path d="" fill="#2E6295" transform="translate(0,0)"/>
<path d="" fill="#306EA5" transform="translate(0,0)"/>
<path d="" fill="#2E6295" transform="translate(0,0)"/>
<path d="" fill="#356898" transform="translate(0,0)"/>
<path d="" fill="#356898" transform="translate(0,0)"/>
<path d="" fill="#356898" transform="translate(0,0)"/>
<path d="" fill="#386EA0" transform="translate(0,0)"/>
<path d="" fill="#386EA0" transform="translate(0,0)"/>
<path d="" fill="#386EA0" transform="translate(0,0)"/>
<path d="" fill="#30689D" transform="translate(0,0)"/>
<path d="" fill="#487EAF" transform="translate(0,0)"/>
<path d="" fill="#487EAF" transform="translate(0,0)"/>
<path d="" fill="#487EAF" transform="translate(0,0)"/>
<path d="" fill="#487EAF" transform="translate(0,0)"/>
<path d="" fill="#386EA0" transform="translate(0,0)"/>
<path d="" fill="#3C75A9" transform="translate(0,0)"/>
<path d="" fill="#30689D" transform="translate(0,0)"/>
<path d="" fill="#3C75A9" transform="translate(0,0)"/>
<path d="" fill="#3C75A9" transform="translate(0,0)"/>
<path d="" fill="#3C75A9" transform="translate(0,0)"/>
<path d="" fill="#386EA0" transform="translate(0,0)"/>
<path d="" fill="#356898" transform="translate(0,0)"/>
<path d="" fill="#30689D" transform="translate(0,0)"/>
<path d="" fill="#306EA5" transform="translate(0,0)"/>
<path d="" fill="#306EA5" transform="translate(0,0)"/>
<path d="" fill="#2E6295" transform="translate(0,0)"/>
<path d="" fill="#406D97" transform="translate(0,0)"/>
<path d="" fill="#356898" transform="translate(0,0)"/>
<path d="" fill="#3C75A9" transform="translate(0,0)"/>
<path d="" fill="#356898" transform="translate(0,0)"/>
<path d="" fill="#306EA5" transform="translate(0,0)"/>
<path d="" fill="#285786" transform="translate(0,0)"/>
<path d="" fill="#356898" transform="translate(0,0)"/>
<path d="" fill="#356898" transform="translate(0,0)"/>
<path d="" fill="#2E6295" transform="translate(0,0)"/>
<path d="" fill="#32608D" transform="translate(0,0)"/>
<path d="" fill="#32608D" transform="translate(0,0)"/>
<path d="" fill="#356898" transform="translate(0,0)"/>
<path d="" fill="#356898" transform="translate(0,0)"/>
<path d="" fill="#386EA0" transform="translate(0,0)"/>
<path d="" fill="#386EA0" transform="translate(0,0)"/>
<path d="" fill="#386EA0" transform="translate(0,0)"/>
<path d="" fill="#356898" transform="translate(0,0)"/>
<path d="" fill="#386EA0" transform="translate(0,0)"/>
<path d="" fill="#356898" transform="translate(0,0)"/>
<path d="" fill="#3C75A9" transform="translate(0,0)"/>
<path d="" fill="#386EA0" transform="translate(0,0)"/>
<path d="" fill="#356898" transform="translate(0,0)"/>
<path d="" fill="#386EA0" transform="translate(0,0)"/>
<path d="" fill="#285786" transform="translate(0,0)"/>
<path d="" fill="#3C75A9" transform="translate(0,0)"/>
<path d="" fill="#2E6295" transform="translate(0,0)"/>
<path d="" fill="#306EA5" transform="translate(0,0)"/>
<path d="" fill="#356898" transform="translate(0,0)"/>
<path d="" fill="#386EA0" transform="translate(0,0)"/>
<path d="" fill="#306EA5" transform="translate(0,0)"/>
<path d="" fill="#30689D" transform="translate(0,0)"/>
<path d="" fill="#306EA5" transform="translate(0,0)"/>
<path d="" fill="#356898" transform="translate(0,0)"/>
<path d="" fill="#356898" transform="translate(0,0)"/>
<path d="" fill="#356898" transform="translate(0,0)"/>
<path d="" fill="#356898" transform="translate(0,0)"/>
<path d="" fill="#386EA0" transform="translate(0,0)"/>
<path d="" fill="#2E6295" transform="translate(0,0)"/>
<path d="" fill="#32608D" transform="translate(0,0)"/>
<path d="" fill="#306FA8" transform="translate(0,0)"/>
<path d="" fill="#386EA0" transform="translate(0,0)"/>
<path d="" fill="#386EA0" transform="translate(0,0)"/>
<path d="" fill="#285786" transform="translate(0,0)"/>
<path d="" fill="#386EA0" transform="translate(0,0)"/>
<path d="" fill="#3C75A9" transform="translate(0,0)"/>
<path d="" fill="#386EA0" transform="translate(0,0)"/>
<path d="" fill="#30689D" transform="translate(0,0)"/>
<path d="" fill="#30689D" transform="translate(0,0)"/>
<path d="" fill="#356898" transform="translate(0,0)"/>
<path d="" fill="#356898" transform="translate(0,0)"/>
<path d="" fill="#386EA0" transform="translate(0,0)"/>
<path d="" fill="#3C75A9" transform="translate(0,0)"/>
<path d="" fill="#386EA0" transform="translate(0,0)"/>
<path d="" fill="#3C75A9" transform="translate(0,0)"/>
<path d="" fill="#3C75A9" transform="translate(0,0)"/>
<path d="" fill="#3C75A9" transform="translate(0,0)"/>
<path d="" fill="#2E6295" transform="translate(0,0)"/>
<path d="" fill="#356898" transform="translate(0,0)"/>
<path d="" fill="#386EA0" transform="translate(0,0)"/>
<path d="" fill="#356898" transform="translate(0,0)"/>
<path d="" fill="#3C75A9" transform="translate(0,0)"/>
<path d="" fill="#3C75A9" transform="translate(0,0)"/>
<path d="" fill="#386EA0" transform="translate(0,0)"/>
<path d="" fill="#3C75A9" transform="translate(0,0)"/>
<path d="" fill="#487EAF" transform="translate(0,0)"/>
<path d="" fill="#356898" transform="translate(0,0)"/>
<path d="" fill="#386EA0" transform="translate(0,0)"/>
<path d="" fill="#386EA0" transform="translate(0,0)"/>
<path d="" fill="#2E6295" transform="translate(0,0)"/>
<path d="" fill="#386EA0" transform="translate(0,0)"/>
<path d="" fill="#386EA0" transform="translate(0,0)"/>
<path d="" fill="#386EA0" transform="translate(0,0)"/>
<path d="" fill="#386EA0" transform="translate(0,0)"/>
<path d="" fill="#386EA0" transform="translate(0,0)"/>
<path d="" fill="#386EA0" transform="translate(0,0)"/>
<path d="" fill="#386EA0" transform="translate(0,0)"/>
<path d="" fill="#386EA0" transform="translate(0,0)"/>
<path d="" fill="#386EA0" transform="translate(0,0)"/>
<path d="" fill="#386EA0" transform="translate(0,0)"/>
<path d="" fill="#386EA0" transform="translate(0,0)"/>
<path d="" fill="#386EA0" transform="translate(0,0)"/>
<path d="" fill="#2F6FAD" transform="translate(0,0)"/>
<path d="" fill="#386EA0" transform="translate(0,0)"/>
<path d="" fill="#2E6295" transform="translate(0,0)"/>
<path d="" fill="#356898" transform="translate(0,0)"/>
<path d="" fill="#356898" transform="translate(0,0)"/>
<path d="" fill="#386EA0" transform="translate(0,0)"/>
<path d="" fill="#356898" transform="translate(0,0)"/>
<path d="" fill="#3C75A9" transform="translate(0,0)"/>
<path d="" fill="#356898" transform="translate(0,0)"/>
<path d="" fill="#487EAF" transform="translate(0,0)"/>
<path d="" fill="#356898" transform="translate(0,0)"/>
<path d="" fill="#3C75A9" transform="translate(0,0)"/>
<path d="" fill="#356898" transform="translate(0,0)"/>
<path d="" fill="#356898" transform="translate(0,0)"/>
<path d="" fill="#30689D" transform="translate(0,0)"/>
<path d="" fill="#30689D" transform="translate(0,0)"/>
<path d="" fill="#386EA0" transform="translate(0,0)"/>
<path d="" fill="#356898" transform="translate(0,0)"/>
<path d="" fill="#356898" transform="translate(0,0)"/>
<path d="" fill="#356898" transform="translate(0,0)"/>
<path d="" fill="#356898" transform="translate(0,0)"/>
<path d="" fill="#306EA5" transform="translate(0,0)"/>
<path d="" fill="#356898" transform="translate(0,0)"/>
<path d="" fill="#356898" transform="translate(0,0)"/>
<path d="" fill="#30689D" transform="translate(0,0)"/>
<path d="" fill="#3C75A9" transform="translate(0,0)"/>
<path d="" fill="#2E6295" transform="translate(0,0)"/>
<path d="" fill="#386EA0" transform="translate(0,0)"/>
<path d="" fill="#356898" transform="translate(0,0)"/>
<path d="" fill="#386EA0" transform="translate(0,0)"/>
<path d="" fill="#3C75A9" transform="translate(0,0)"/>
<path d="" fill="#386EA0" transform="translate(0,0)"/>
<path d="" fill="#30689D" transform="translate(0,0)"/>
<path d="" fill="#487EAF" transform="translate(0,0)"/>
<path d="" fill="#306EA5" transform="translate(0,0)"/>
<path d="" fill="#30689D" transform="translate(0,0)"/>
<path d="" fill="#30689D" transform="translate(0,0)"/>
<path d="" fill="#356898" transform="translate(0,0)"/>
<path d="" fill="#356898" transform="translate(0,0)"/>
<path d="" fill="#2E6295" transform="translate(0,0)"/>
<path d="" fill="#3C75A9" transform="translate(0,0)"/>
<path d="" fill="#356898" transform="translate(0,0)"/>
<path d="" fill="#386EA0" transform="translate(0,0)"/>
<path d="" fill="#32608D" transform="translate(0,0)"/>
<path d="" fill="#386EA0" transform="translate(0,0)"/>
<path d="" fill="#356898" transform="translate(0,0)"/>
<path d="" fill="#356898" transform="translate(0,0)"/>
<path d="" fill="#386EA0" transform="translate(0,0)"/>
<path d="" fill="#386EA0" transform="translate(0,0)"/>
<path d="" fill="#356898" transform="translate(0,0)"/>
<path d="" fill="#2F6FAD" transform="translate(0,0)"/>
<path d="" fill="#356898" transform="translate(0,0)"/>
<path d="" fill="#3C75A9" transform="translate(0,0)"/>
<path d="" fill="#487EAF" transform="translate(0,0)"/>
<path d="" fill="#487EAF" transform="translate(0,0)"/>
<path d="" fill="#386EA0" transform="translate(0,0)"/>
<path d="" fill="#356898" transform="translate(0,0)"/>
<path d="" fill="#3C75A9" transform="translate(0,0)"/>
<path d="" fill="#3C75A9" transform="translate(0,0)"/>
<path d="" fill="#356898" transform="translate(0,0)"/>
<path d="" fill="#356898" transform="translate(0,0)"/>
<path d="" fill="#386EA0" transform="translate(0,0)"/>
<path d="" fill="#2E6295" transform="translate(0,0)"/>
<path d="" fill="#356898" transform="translate(0,0)"/>
<path d="" fill="#386EA0" transform="translate(0,0)"/>
<path d="" fill="#386EA0" transform="translate(0,0)"/>
<path d="" fill="#356898" transform="translate(0,0)"/>
<path d="" fill="#487EAF" transform="translate(0,0)"/>
<path d="" fill="#3C75A9" transform="translate(0,0)"/>
<path d="" fill="#306EA5" transform="translate(0,0)"/>
<path d="" fill="#386EA0" transform="translate(0,0)"/>
<path d="" fill="#356898" transform="translate(0,0)"/>
<path d="" fill="#386EA0" transform="translate(0,0)"/>
<path d="" fill="#386EA0" transform="translate(0,0)"/>
<path d="" fill="#386EA0" transform="translate(0,0)"/>
<path d="" fill="#386EA0" transform="translate(0,0)"/>
<path d="" fill="#386EA0" transform="translate(0,0)"/>
<path d="" fill="#386EA0" transform="translate(0,0)"/>
<path d="" fill="#386EA0" transform="translate(0,0)"/>
<path d="" fill="#306EA5" transform="translate(0,0)"/>
<path d="" fill="#2F6FAD" transform="translate(0,0)"/>
<path d="" fill="#2F6FAD" transform="translate(0,0)"/>
<path d="" fill="#356898" transform="translate(0,0)"/>
<path d="" fill="#30689D" transform="translate(0,0)"/>
<path d="" fill="#386EA0" transform="translate(0,0)"/>
<path d="" fill="#356898" transform="translate(0,0)"/>
<path d="" fill="#3C75A9" transform="translate(0,0)"/>
<path d="" fill="#356898" transform="translate(0,0)"/>
<path d="" fill="#356898" transform="translate(0,0)"/>
<path d="" fill="#306EA5" transform="translate(0,0)"/>
<path d="" fill="#356898" transform="translate(0,0)"/>
<path d="" fill="#3C75A9" transform="translate(0,0)"/>
<path d="" fill="#356898" transform="translate(0,0)"/>
<path d="" fill="#487EAF" transform="translate(0,0)"/>
<path d="" fill="#306EA5" transform="translate(0,0)"/>
<path d="" fill="#487EAF" transform="translate(0,0)"/>
<path d="" fill="#356898" transform="translate(0,0)"/>
<path d="" fill="#356898" transform="translate(0,0)"/>
<path d="" fill="#356898" transform="translate(0,0)"/>
<path d="" fill="#306EA5" transform="translate(0,0)"/>
<path d="" fill="#2E6295" transform="translate(0,0)"/>
<path d="" fill="#356898" transform="translate(0,0)"/>
<path d="" fill="#30689D" transform="translate(0,0)"/>
</svg>